<?xml version="1.0" encoding="UTF-8" standalone="no"?>
<svg xmlns:sketch="http://www.bohemiancoding.com/sketch/ns" xmlns="http://www.w3.org/2000/svg" height="345px" width="509px" version="1.1" xmlns:xlink="http://www.w3.org/1999/xlink" viewBox="0 0 509 345">
 <title>AIRY SPRITE</title>
 <desc>Created with Sketch.</desc>
 <defs>
  <linearGradient id="b" y1="50.723%" x2="-2.7945%" x1="104.24%" y2="50.723%">
   <stop stop-color="#F0C14B" offset="0"/>
   <stop stop-color="#E47911" offset="1"/>
  </linearGradient>
  <linearGradient id="a" y1="49.261%" x2="102.78%" x1="-4.2555%" y2="49.261%">
   <stop stop-color="#F0C14B" offset="0"/>
   <stop stop-color="#E47911" offset="1"/>
  </linearGradient>
 </defs>
 <g fill-rule="evenodd" sketch:type="MSPage" fill="none">
  <g sketch:type="MSArtboardGroup">
   <g fill="#010101">
    <circle opacity=".15" sketch:type="MSShapeGroup" cy="89.022" cx="254.02" r="62.022"/>
    <circle opacity=".15" sketch:type="MSShapeGroup" cy="254.02" cx="89.022" r="62.022"/>
    <circle opacity=".15" sketch:type="MSShapeGroup" cy="89.023" cx="89.023" r="62.023"/>
    <circle opacity=".15" sketch:type="MSShapeGroup" cy="254.02" cx="254.02" r="62.022"/>
   </g>
   <circle r="64" cy="89" sketch:type="MSShapeGroup" stroke="#fff" cx="254" stroke-width="4.4302"/>
   <g transform="translate(226 52)" sketch:type="MSLayerGroup">
    <path sketch:type="MSShapeGroup" stroke="#fff" stroke-width="11.159" d="m17.66 14.635c6.094-2.888 13.291-3.453 20.146-1.007 13.705 4.891 20.854 19.968 15.961 33.675-4.891 13.708-19.965 20.856-33.672 15.964-9.646-3.442-16.044-11.928-17.284-21.431"/>
    <path sketch:type="MSShapeGroup" fill="#fff" d="m27.3 25.462l-27.73-2.253 15.81-22.887 11.92 25.14z"/>
   </g>
   <circle r="64" cy="254" sketch:type="MSShapeGroup" stroke="#fff" cx="89" stroke-width="4.4302"/>
   <g fill="#fff">
    <rect sketch:type="MSShapeGroup" height="49.839" width="14.398" y="229" x="65"/>
    <rect sketch:type="MSShapeGroup" height="49.839" width="14.398" y="229" x="98"/>
    <path sketch:type="MSShapeGroup" d="m120.68 89l-47.786-29.013v58.023l47.786-29.01z"/>
   </g>
   <circle r="64" cy="89" sketch:type="MSShapeGroup" stroke="#fff" cx="89" stroke-width="4.4302"/>
   <circle r="64" cy="254" sketch:type="MSShapeGroup" stroke="#fff" cx="254" stroke-width="4.4302"/>
   <g fill="#fff">
    <path sketch:type="MSShapeGroup" d="m255 223.44v61.78l-17.82-17.22h-17.18v-26h17.18l17.82-18.56z"/>
    <path sketch:type="MSShapeGroup" d="m268.08 240.88l7.6 7.6 7.58-7.6 5.54 5.52-7.6 7.6 7.63 7.63-5.57 5.49-7.59-7.59-7.59 7.59-5.51-5.48 7.6-7.62-7.61-7.6 5.52-5.55v0.01z"/>
    <rect sketch:type="MSShapeGroup" height="11.161" width="3.225" y="27" x="459"/>
    <rect sketch:type="MSShapeGroup" height="11.161" width="3.225" y="27" x="467"/>
    <path sketch:type="MSShapeGroup" d="m441.35 32.498l-10.7-6.5v13l10.7-6.5z"/>
    <path sketch:type="MSShapeGroup" d="m403 25v15l-3.88-4h-4.12v-7h4.12l3.88-4z"/>
    <path sketch:type="MSShapeGroup" d="m406.62 29.235l1.85 1.846 1.84-1.846 1.34 1.339-1.85 1.846 1.86 1.852-1.35 1.334-1.85-1.844-1.84 1.844-1.34-1.331 1.84-1.849-1.84-1.846 1.34-1.345z"/>
   </g>
   <path sketch:type="MSShapeGroup" stroke="#fff" stroke-width="1.554" d="m370.28 26.637c3.03 0 5.49 2.609 5.49 5.827 0 3.219-2.46 5.826-5.49 5.826"/>
   <path sketch:type="MSShapeGroup" stroke="#fff" stroke-width="1.554" d="m370.29 29.597c1.51 0 2.73 1.299 2.73 2.903s-1.22 2.904-2.73 2.904"/>
   <path sketch:type="MSShapeGroup" fill="#fff" d="m368 25v15l-3.88-4h-4.12v-7h4.12l3.88-4z"/>
   <g transform="translate(364 94)" sketch:type="MSLayerGroup">
    <path sketch:type="MSShapeGroup" stroke="#fff" stroke-width="2.7966" d="m7.2 5.765l2.79-2.797"/>
    <path sketch:type="MSShapeGroup" fill="#fff" d="m6.59 0l6 6v-6h-6z"/>
    <path sketch:type="MSShapeGroup" stroke="#fff" stroke-width="2.7966" d="m5.63 7.32l-2.8 2.79"/>
    <path sketch:type="MSShapeGroup" fill="#fff" d="m6.24 13l-6.24-6.29v6.29h6.24z"/>
   </g>
   <g transform="translate(430 94)" sketch:type="MSLayerGroup">
    <path sketch:type="MSShapeGroup" stroke="#fff" stroke-width="2.7966" d="m7.2 5.765l2.79-2.797"/>
    <path sketch:type="MSShapeGroup" fill="#fff" d="m6.59 0l6 6v-6h-6z"/>
    <path sketch:type="MSShapeGroup" stroke="#fff" stroke-width="2.7966" d="m5.63 7.32l-2.8 2.79"/>
    <path sketch:type="MSShapeGroup" fill="#fff" d="m6.24 13l-6.24-6.29v6.29h6.24z"/>
   </g>
   <path sketch:type="MSShapeGroup" stroke="#fff" stroke-width="2" d="m381 91.37c0-0.753-0.62-1.37-1.37-1.37h-18.26c-0.75 0-1.37 0.616-1.37 1.37v18.26c0 0.75 0.62 1.37 1.37 1.37h18.26c0.75 0 1.37-0.62 1.37-1.37v-18.259-0.001z"/>
   <g transform="translate(399 94)" sketch:type="MSLayerGroup">
    <path sketch:type="MSShapeGroup" stroke="#fff" stroke-width="2.7966" d="m12.09 1.022l-2.79 2.797"/>
    <path sketch:type="MSShapeGroup" fill="#fff" d="m12.7 6l-5.7-5.587v5.587h5.7z"/>
    <path sketch:type="MSShapeGroup" stroke="#fff" stroke-width="2.7966" d="m1.04 11.98l2.8-2.8"/>
    <path sketch:type="MSShapeGroup" fill="#fff" d="m0.43 7l5.57 5.59v-5.59h-5.57z"/>
   </g>
   <g transform="translate(459 94)" sketch:type="MSLayerGroup">
    <path sketch:type="MSShapeGroup" stroke="#fff" stroke-width="2.7966" d="m12.09 1.022l-2.79 2.797"/>
    <path sketch:type="MSShapeGroup" fill="#fff" d="m12.7 6l-5.7-5.587v5.587h5.7z"/>
    <path sketch:type="MSShapeGroup" stroke="#fff" stroke-width="2.7966" d="m1.04 11.98l2.8-2.8"/>
    <path sketch:type="MSShapeGroup" fill="#fff" d="m0.43 7l5.57 5.59v-5.59h-5.57z"/>
   </g>
   <path sketch:type="MSShapeGroup" stroke="#fff" stroke-width="2" d="m395 109.63c0 0.75 0.62 1.37 1.37 1.37h18.26c0.75 0 1.37-0.62 1.37-1.37v-18.26c0-0.753-0.62-1.37-1.37-1.37h-18.26c-0.75 0-1.37 0.616-1.37 1.37v18.26z"/>
   <g fill="#bbb">
    <rect sketch:type="MSShapeGroup" height="11.161" width="3.225" y="62" x="459"/>
    <rect sketch:type="MSShapeGroup" height="11.161" width="3.225" y="62" x="467"/>
    <path sketch:type="MSShapeGroup" d="m441.35 67.561l-10.7-6.5v13l10.7-6.5z"/>
    <path sketch:type="MSShapeGroup" d="m403 60v15l-3.88-4h-4.12v-7h4.12l3.88-4z"/>
    <path sketch:type="MSShapeGroup" d="m406.62 64.235l1.85 1.846 1.84-1.846 1.34 1.339-1.85 1.846 1.86 1.852-1.35 1.334-1.85-1.844-1.84 1.844-1.34-1.331 1.84-1.849-1.84-1.846 1.34-1.345z"/>
   </g>
   <path sketch:type="MSShapeGroup" stroke="#bbb" stroke-width="1.554" d="m370.28 61.637c3.03 0 5.49 2.609 5.49 5.827 0 3.219-2.46 5.826-5.49 5.826"/>
   <path sketch:type="MSShapeGroup" stroke="#bbb" stroke-width="1.554" d="m370.29 64.597c1.51 0 2.73 1.299 2.73 2.903s-1.22 2.904-2.73 2.904"/>
   <path sketch:type="MSShapeGroup" fill="#bbb" d="m368 60v15l-3.88-4h-4.12v-7h4.12l3.88-4z"/>
   <g transform="translate(364 129)" sketch:type="MSLayerGroup">
    <path sketch:type="MSShapeGroup" stroke="#bbb" stroke-width="2.7966" d="m7.2 5.76l2.79-2.79"/>
    <path sketch:type="MSShapeGroup" fill="#bbb" d="m6.59 0l6 6v-6h-6z"/>
    <path sketch:type="MSShapeGroup" stroke="#bbb" stroke-width="2.7966" d="m5.63 7.32l-2.8 2.79"/>
    <path sketch:type="MSShapeGroup" fill="#bbb" d="m6.24 13l-6.24-6.29v6.29h6.24z"/>
   </g>
   <g transform="translate(430 129)" sketch:type="MSLayerGroup">
    <path sketch:type="MSShapeGroup" stroke="#bbb" stroke-width="2.7966" d="m7.2 5.76l2.79-2.79"/>
    <path sketch:type="MSShapeGroup" fill="#bbb" d="m6.59 0l6 6v-6h-6z"/>
    <path sketch:type="MSShapeGroup" stroke="#bbb" stroke-width="2.7966" d="m5.63 7.32l-2.8 2.79"/>
    <path sketch:type="MSShapeGroup" fill="#bbb" d="m6.24 13l-6.24-6.29v6.29h6.24z"/>
   </g>
   <path sketch:type="MSShapeGroup" stroke="#bbb" stroke-width="2" d="m381 126.37c0-0.75-0.62-1.37-1.37-1.37h-18.26c-0.75 0-1.37 0.62-1.37 1.37v18.26c0 0.75 0.62 1.37 1.37 1.37h18.26c0.75 0 1.37-0.62 1.37-1.37v-18.26z"/>
   <g transform="translate(399 129)" sketch:type="MSLayerGroup">
    <path sketch:type="MSShapeGroup" stroke="#bbb" stroke-width="2.7966" d="m12.09 1.02l-2.79 2.8"/>
    <path sketch:type="MSShapeGroup" fill="#bbb" d="m12.7 6l-5.7-5.59v5.59h5.7z"/>
    <path sketch:type="MSShapeGroup" stroke="#bbb" stroke-width="2.7966" d="m1.04 11.98l2.8-2.8"/>
    <path sketch:type="MSShapeGroup" fill="#bbb" d="m0.43 7l5.57 5.59v-5.59h-5.57z"/>
   </g>
   <g transform="translate(459 129)" sketch:type="MSLayerGroup">
    <path sketch:type="MSShapeGroup" stroke="#bbb" stroke-width="2.7966" d="m12.09 1.02l-2.79 2.8"/>
    <path sketch:type="MSShapeGroup" fill="#bbb" d="m12.7 6l-5.7-5.59v5.59h5.7z"/>
    <path sketch:type="MSShapeGroup" stroke="#bbb" stroke-width="2.7966" d="m1.04 11.98l2.8-2.8"/>
    <path sketch:type="MSShapeGroup" fill="#bbb" d="m0.43 7l5.57 5.59v-5.59h-5.57z"/>
   </g>
   <path sketch:type="MSShapeGroup" stroke="#bbb" stroke-width="2" d="m395 144.63c0 0.75 0.62 1.37 1.37 1.37h18.26c0.75 0 1.37-0.62 1.37-1.37v-18.26c0-0.75-0.62-1.37-1.37-1.37h-18.26c-0.75 0-1.37 0.62-1.37 1.37v18.26z"/>
   <g stroke-width="10" transform="translate(350 180)" sketch:type="MSLayerGroup">
    <path stroke="url(#b)" sketch:type="MSShapeGroup" d="m124.92 24.39c10.95 12.525 17.58 28.918 17.58 46.861 0 39.349-31.9 71.249-71.252 71.249-18.002 0-34.443-6.68-46.984-17.68"/>
    <path stroke="url(#a)" sketch:type="MSShapeGroup" d="m17.23 117.72c-10.74-12.48-17.23-28.72-17.23-46.47 0-39.354 31.898-71.25 71.25-71.25 17.761-2.8422e-14 34 6.498 46.48 17.246"/>
   </g>
  </g>
 </g>
</svg>
