<!-- Graphic -->
<svg xmlns="http://www.w3.org/2000/svg" xmlns:xlink="http://www.w3.org/1999/xlink" width="20" height="26" viewBox="1 -2 17 26">
  <g>
    <defs>
      <path d="M 4.697 3.57 C 4.906 3.141 5.262 2.802 5.699 2.612 L 11.343 0.166 C 12.469 -0.322 13.765 0.31 14.074 1.498 L 15.621 7.451 C 15.741 7.913 15.692 8.402 15.483 8.831 L 10.988 18.045 C 10.504 19.038 9.307 19.45 8.314 18.966 L 1.124 15.459 C 0.131 14.975 -0.281 13.778 0.203 12.785 Z M 9.505 2.59 C 9.021 3.582 9.433 4.78 10.426 5.264 C 11.419 5.748 12.616 5.336 13.1 4.343 C 13.584 3.35 13.172 2.153 12.179 1.669 C 11.187 1.184 9.989 1.597 9.505 2.59 Z" transform="rotate(-41 7.843 9.585)" id="a1037z"/>
      <filter id="a1039z" x="-66.5%" y="-64.9%" width="232.4%" height="229.2%" filterUnits="objectBoundingBox">
        <feOffset dx="0" dy="2" in="SourceAlpha" result="a1041z"/>
        <feGaussianBlur stdDeviation="2.5" in="a1041z" result="a1042z"/>
        <feColorMatrix color-interpolation-filters="sRGB" values="0 0 0 0 0   0 0 0 0 0   0 0 0 0 0  0 0 0 0.45 0" type="matrix" in="a1042z" result="a1043z"/>
      </filter>
    </defs>
    <g filter="url(#a1039z)">
      <use fill="black" fill-opacity="1" stroke="black" stroke-opacity="0" stroke-width="0" xlink:href="#a1037z" clip-path="url(#a1038z)"/>
    </g>
    <use xlink:href="#a1037z" fill="rgb(253, 248, 247)" clip-path="url(#a1038z)"/>
  </g>
</svg>